<svg width="27" height="27" viewBox="0 0 27 27" fill="none" xmlns="http://www.w3.org/2000/svg">
<path fill-rule="evenodd" clip-rule="evenodd" d="M1.26884 15.9552C-0.463234 7.87215 5.69862 0.25 13.9651 0.25C21.1363 0.25 26.9497 6.06337 26.9497 13.2345C26.9497 21.5011 19.3275 27.6629 11.2445 25.9308L8.74785 25.3958C8.43588 25.329 8.11169 25.3469 7.80901 25.4478L4.09376 26.6863C1.881 27.4238 -0.224163 25.3187 0.513428 23.1059L1.75184 19.3907C1.85274 19.088 1.87069 18.7638 1.80384 18.4518L1.26884 15.9552ZM13.9651 2.75C7.29023 2.75 2.31476 8.9046 3.71335 15.4314L4.24835 17.928C4.40879 18.6767 4.3657 19.4548 4.12355 20.1812L2.88514 23.8965C2.79901 24.1549 3.04482 24.4007 3.30319 24.3145L7.01844 23.0761C7.74488 22.834 8.52294 22.7909 9.27168 22.9513L11.7683 23.4863C18.2951 24.8849 24.4497 19.9094 24.4497 13.2345C24.4497 7.44409 19.7556 2.75 13.9651 2.75Z" fill="#757575"/>
</svg>
