<svg width="31" height="29" viewBox="0 0 31 29" fill="none" xmlns="http://www.w3.org/2000/svg">
<path d="M13.1123 1.61914C14.4263 0.484629 16.3746 0.484556 17.6885 1.61914L30.1309 12.3652C30.7575 12.9067 30.8262 13.8536 30.2852 14.4805C29.7436 15.1072 28.7968 15.1762 28.1699 14.6348L26.9004 13.5381V24.5C26.9004 26.9853 24.8856 29 22.4004 29H8.40039C5.91511 29 3.90039 26.9853 3.90039 24.5V13.5381L2.63086 14.6348C2.00397 15.1762 1.05714 15.1072 0.515625 14.4805C-0.0255671 13.8536 0.0432599 12.9067 0.669922 12.3652L13.1123 1.61914ZM15.7275 3.88965C15.5399 3.72777 15.2609 3.72784 15.0732 3.88965L6.90039 10.9473V24.5C6.90039 25.3284 7.57196 26 8.40039 26H12.8994V19.501C12.8994 18.9488 13.3473 18.5012 13.8994 18.501H16.8994C17.4517 18.501 17.8994 18.9487 17.8994 19.501V26H22.4004C23.2288 26 23.9004 25.3284 23.9004 24.5V10.9473L15.7275 3.88965Z" fill="url(#paint0_linear_462_652)"/>
<defs>
<linearGradient id="paint0_linear_462_652" x1="15.3999" y1="0.768555" x2="15.3999" y2="29.0003" gradientUnits="userSpaceOnUse">
<stop stop-color="#C6007E"/>
<stop offset="1" stop-color="#93328E"/>
</linearGradient>
</defs>
</svg>
