<svg width="23" height="26" viewBox="0 0 23 26" fill="none" xmlns="http://www.w3.org/2000/svg">
<path fill-rule="evenodd" clip-rule="evenodd" d="M0 10.7542C0 4.82988 5.13229 0 11.5 0C17.8677 0 23 4.82988 23 10.7542C23 13.6141 22.1142 16.6857 20.5475 19.3389C18.9835 21.9884 16.6993 24.2909 13.8407 25.5207C13.1081 25.8364 12.309 26 11.5 26C10.691 26 9.89191 25.8364 9.15926 25.5207C6.30069 24.2909 4.01646 21.9896 2.45246 19.3389C0.885829 16.6857 0 13.6141 0 10.7542ZM11.5 1.81393C6.25337 1.81393 1.97143 5.80094 1.97143 10.7542C1.97143 13.29 2.76394 16.0653 4.18469 18.473C5.60674 20.8831 7.6176 22.8555 9.99383 23.8773C10.465 24.0805 10.979 24.1857 11.4993 24.1857C12.0197 24.1857 12.5337 24.0805 13.0049 23.8773C15.3824 22.8555 17.3933 20.8831 18.8153 18.473C20.2361 16.0666 21.0286 13.29 21.0286 10.7542C21.0286 5.80094 16.7466 1.81393 11.5 1.81393ZM11.5 7.86035C11.1117 7.86035 10.7271 7.93073 10.3684 8.06747C10.0096 8.2042 9.68358 8.40462 9.40898 8.65728C9.13439 8.90994 8.91657 9.20989 8.76796 9.54C8.61935 9.87012 8.54286 10.2239 8.54286 10.5812C8.54286 10.9386 8.61935 11.2924 8.76796 11.6225C8.91657 11.9526 9.13439 12.2525 9.40898 12.5052C9.68358 12.7579 10.0096 12.9583 10.3684 13.095C10.7271 13.2318 11.1117 13.3021 11.5 13.3021C12.2843 13.3021 13.0364 13.0155 13.591 12.5052C14.1456 11.9949 14.4571 11.3029 14.4571 10.5812C14.4571 9.85962 14.1456 9.16755 13.591 8.65728C13.0364 8.14702 12.2843 7.86035 11.5 7.86035ZM6.57143 10.5812C6.57143 9.37853 7.09069 8.22508 8.01497 7.37464C8.93926 6.5242 10.1929 6.04642 11.5 6.04642C12.8071 6.04642 14.0607 6.5242 14.985 7.37464C15.9093 8.22508 16.4286 9.37853 16.4286 10.5812C16.4286 11.7839 15.9093 12.9374 14.985 13.7878C14.0607 14.6383 12.8071 15.1161 11.5 15.1161C10.1929 15.1161 8.93926 14.6383 8.01497 13.7878C7.09069 12.9374 6.57143 11.7839 6.57143 10.5812Z" fill="url(#paint0_linear_462_705)"/>
<defs>
<linearGradient id="paint0_linear_462_705" x1="11.5" y1="0" x2="11.5" y2="26" gradientUnits="userSpaceOnUse">
<stop stop-color="#C6007E"/>
<stop offset="1" stop-color="#93328E"/>
</linearGradient>
</defs>
</svg>
