<svg width="30" height="30" viewBox="0 0 30 30" fill="none" xmlns="http://www.w3.org/2000/svg">
<path d="M10.9484 1.25C9.9422 1.24999 9.1117 1.24997 8.43522 1.30524C7.7326 1.36265 7.08672 1.48586 6.48005 1.79497C5.53924 2.27434 4.77434 3.03924 4.29497 3.98005C3.98586 4.58672 3.86265 5.2326 3.80524 5.93522C3.74997 6.6117 3.74999 7.44213 3.75 8.44832V21.5516C3.74999 22.5578 3.74997 23.3883 3.80524 24.0648C3.86265 24.7674 3.98586 25.4133 4.29497 26.02C4.77434 26.9608 5.53924 27.7257 6.48005 28.205C7.08672 28.5141 7.7326 28.6374 8.43522 28.6948C9.11171 28.75 9.94215 28.75 10.9483 28.75H16.3763C15.6439 28.0324 15.0372 27.187 14.592 26.25H11C9.92928 26.25 9.20141 26.249 8.6388 26.2031C8.09078 26.1583 7.81053 26.0771 7.61503 25.9775C7.14462 25.7378 6.76217 25.3554 6.52249 24.885C6.42287 24.6895 6.34172 24.4092 6.29694 23.8612C6.25097 23.2986 6.25 22.5707 6.25 21.5V8.5C6.25 7.42928 6.25097 6.70141 6.29694 6.1388C6.34172 5.59078 6.42287 5.31053 6.52249 5.11503C6.76217 4.64462 7.14462 4.26217 7.61503 4.02249C7.81053 3.92287 8.09078 3.84172 8.6388 3.79694C9.20141 3.75098 9.92928 3.75 11 3.75H19C20.0707 3.75 20.7986 3.75098 21.3612 3.79694C21.9092 3.84172 22.1895 3.92287 22.385 4.02249C22.8554 4.26217 23.2378 4.64462 23.4775 5.11503C23.5771 5.31053 23.6583 5.59078 23.7031 6.1388C23.749 6.70141 23.75 7.42928 23.75 8.5V13.8386C24.6327 13.9649 25.4729 14.2229 26.25 14.592V8.44835C26.25 7.44215 26.25 6.61171 26.1948 5.93522C26.1374 5.2326 26.0141 4.58672 25.705 3.98005C25.2257 3.03924 24.4608 2.27434 23.52 1.79497C22.9133 1.48586 22.2674 1.36265 21.5648 1.30524C20.8883 1.24997 20.0579 1.24999 19.0517 1.25H10.9484Z" fill="#757575"/>
<path d="M10 7.5C9.30965 7.5 8.75 8.05965 8.75 8.75C8.75 9.44036 9.30965 10 10 10H20C20.6904 10 21.25 9.44036 21.25 8.75C21.25 8.05965 20.6904 7.5 20 7.5H10Z" fill="#757575"/>
<path d="M10 12.5C9.30965 12.5 8.75 13.0596 8.75 13.75C8.75 14.4404 9.30965 15 10 15H15C15.6904 15 16.25 14.4404 16.25 13.75C16.25 13.0596 15.6904 12.5 15 12.5H10Z" fill="#757575"/>
<path d="M10 17.5C9.30965 17.5 8.75 18.0596 8.75 18.75C8.75 19.4404 9.30965 20 10 20H11.25C11.9404 20 12.5 19.4404 12.5 18.75C12.5 18.0596 11.9404 17.5 11.25 17.5H10Z" fill="#757575"/>
<path fill-rule="evenodd" clip-rule="evenodd" d="M22.5 28.75C25.9518 28.75 28.75 25.9518 28.75 22.5C28.75 19.0482 25.9518 16.25 22.5 16.25C19.0482 16.25 16.25 19.0482 16.25 22.5C16.25 25.9518 19.0482 28.75 22.5 28.75ZM25.183 19.3989C25.7225 19.7072 25.9099 20.3944 25.6016 20.9338L23.1016 25.3088C22.9108 25.6427 22.5627 25.856 22.1786 25.8744C21.7944 25.8928 21.4275 25.7136 21.2058 25.3994L19.3308 22.7432C18.9725 22.2356 19.0935 21.5336 19.6011 21.1753C20.1087 20.817 20.8106 20.9381 21.1689 21.4457L22.0248 22.6582L23.6481 19.8175C23.9563 19.2781 24.6435 19.0906 25.183 19.3989Z" fill="#757575"/>
</svg>
