<svg width="18" height="18" viewBox="0 0 18 18" fill="none" xmlns="http://www.w3.org/2000/svg">
<g clip-path="url(#clip0_462_492)">
<g filter="url(#filter0_d_462_492)">
<path d="M9.97091 5.5183C9.97091 5.91586 9.64863 6.23813 9.25108 6.23813C8.85353 6.23813 8.53125 5.91586 8.53125 5.5183C8.53125 5.12075 8.85353 4.79847 9.25108 4.79847C9.64863 4.79847 9.97091 5.12075 9.97091 5.5183Z" fill="#FFFDFB"/>
<path fill-rule="evenodd" clip-rule="evenodd" d="M6.75 0C6.33579 0 6 0.335786 6 0.75C6 1.16421 6.33579 1.5 6.75 1.5H14.2487C14.6636 1.5 15 1.83636 15 2.25128C15 2.66569 14.6644 3.00185 14.25 3.00255L12.2214 3.006C12.1823 3.00375 12.1427 3.00257 12.1027 3.00251L8.64336 2.99726C4.69994 2.99127 1.5 6.18637 1.5 10.1298C1.5 14.0636 4.68495 17.2547 8.61876 17.2623L10.4877 17.2659C11.7364 17.2683 12.75 16.2567 12.75 15.008C12.75 13.7609 11.7391 12.75 10.492 12.75H8.25C7.48113 12.75 6.82035 12.2872 6.53101 11.625H8.625C9.03921 11.625 9.375 11.2892 9.375 10.875C9.375 10.4608 9.03921 10.125 8.625 10.125H6.53102C6.82035 9.46279 7.48113 9.00001 8.25 9.00001H10.4775C11.074 9.00001 11.6381 8.72881 12.0106 8.26297L13.6457 6.21845C14.0661 5.6927 14.1642 5.06424 14.0215 4.50294L14.2526 4.50255C15.4944 4.50044 16.5 3.49313 16.5 2.25128C16.5 1.00793 15.4921 0 14.2487 0H6.75ZM11.9207 4.50224C11.9472 4.50502 11.9741 4.50643 12.0013 4.50638L12.1602 4.50611C12.5236 4.5499 12.7124 4.98378 12.4742 5.28161L10.8392 7.32613C10.7513 7.43603 10.6182 7.50001 10.4775 7.50001H8.25C6.38604 7.50001 4.875 9.01104 4.875 10.875C4.875 12.739 6.38604 14.25 8.25 14.25H10.492C10.9106 14.25 11.25 14.5894 11.25 15.008C11.25 15.4271 10.9098 15.7667 10.4906 15.7659L8.62165 15.7623C5.51514 15.7563 3 13.2363 3 10.1298C3 7.01569 5.52698 4.49253 8.64108 4.49726L11.9207 4.50224Z" fill="#FFFDFB"/>
</g>
</g>
<defs>
<filter id="filter0_d_462_492" x="-2.5" y="0" width="23" height="25.2656" filterUnits="userSpaceOnUse" color-interpolation-filters="sRGB">
<feFlood flood-opacity="0" result="BackgroundImageFix"/>
<feColorMatrix in="SourceAlpha" type="matrix" values="0 0 0 0 0 0 0 0 0 0 0 0 0 0 0 0 0 0 127 0" result="hardAlpha"/>
<feOffset dy="4"/>
<feGaussianBlur stdDeviation="2"/>
<feComposite in2="hardAlpha" operator="out"/>
<feColorMatrix type="matrix" values="0 0 0 0 0 0 0 0 0 0 0 0 0 0 0 0 0 0 0.25 0"/>
<feBlend mode="normal" in2="BackgroundImageFix" result="effect1_dropShadow_462_492"/>
<feBlend mode="normal" in="SourceGraphic" in2="effect1_dropShadow_462_492" result="shape"/>
</filter>
<clipPath id="clip0_462_492">
<rect width="18" height="18" fill="white"/>
</clipPath>
</defs>
</svg>
