<svg width="18" height="18" viewBox="0 0 18 18" fill="none" xmlns="http://www.w3.org/2000/svg">
<g clip-path="url(#clip0_462_756)">
<g filter="url(#filter0_d_462_756)">
<path d="M12 2.25C12 2.05109 11.921 1.86032 11.7803 1.71967C11.6397 1.57902 11.4489 1.5 11.25 1.5H6.75C6.55109 1.5 6.36032 1.57902 6.21967 1.71967C6.07902 1.86032 6 2.05109 6 2.25V6H2.25C2.05109 6 1.86032 6.07902 1.71967 6.21967C1.57902 6.36032 1.5 6.55109 1.5 6.75V11.25C1.5 11.4489 1.57902 11.6397 1.71967 11.7803C1.86032 11.921 2.05109 12 2.25 12H6V15.75C6 15.9489 6.07902 16.1397 6.21967 16.2803C6.36032 16.421 6.55109 16.5 6.75 16.5H11.25C11.4489 16.5 11.6397 16.421 11.7803 16.2803C11.921 16.1397 12 15.9489 12 15.75V12H15.75C15.9489 12 16.1397 11.921 16.2803 11.7803C16.421 11.6397 16.5 11.4489 16.5 11.25V6.75C16.5 6.55109 16.421 6.36032 16.2803 6.21967C16.1397 6.07902 15.9489 6 15.75 6H12V2.25Z" stroke="#FFFDFB" stroke-width="2" stroke-linecap="round" stroke-linejoin="round" shape-rendering="crispEdges"/>
</g>
</g>
<defs>
<filter id="filter0_d_462_756" x="-3.5" y="0.5" width="25" height="25" filterUnits="userSpaceOnUse" color-interpolation-filters="sRGB">
<feFlood flood-opacity="0" result="BackgroundImageFix"/>
<feColorMatrix in="SourceAlpha" type="matrix" values="0 0 0 0 0 0 0 0 0 0 0 0 0 0 0 0 0 0 127 0" result="hardAlpha"/>
<feOffset dy="4"/>
<feGaussianBlur stdDeviation="2"/>
<feComposite in2="hardAlpha" operator="out"/>
<feColorMatrix type="matrix" values="0 0 0 0 0 0 0 0 0 0 0 0 0 0 0 0 0 0 0.25 0"/>
<feBlend mode="normal" in2="BackgroundImageFix" result="effect1_dropShadow_462_756"/>
<feBlend mode="normal" in="SourceGraphic" in2="effect1_dropShadow_462_756" result="shape"/>
</filter>
<clipPath id="clip0_462_756">
<rect width="18" height="18" fill="white"/>
</clipPath>
</defs>
</svg>
