<svg width="18" height="17" viewBox="0 0 18 17" fill="none" xmlns="http://www.w3.org/2000/svg">
<g filter="url(#filter0_d_462_471)">
<path d="M4.20222 0.79982C3.64062 0.79982 3.14472 1.19402 3.04122 1.76102C2.90802 2.49722 2.69922 3.80762 2.69922 4.84982C2.69922 5.95772 3.27162 6.93152 4.13472 7.49222C4.37862 7.65152 4.49922 7.85672 4.49922 8.03222V8.40122C4.49922 8.41742 4.49832 8.43362 4.49652 8.44982C4.47222 8.68382 4.36062 9.73592 4.25532 10.8177C4.15182 11.8842 4.04922 13.0227 4.04922 13.3998C4.04922 13.8772 4.23886 14.335 4.57643 14.6726C4.91399 15.0102 5.37183 15.1998 5.84922 15.1998C6.32661 15.1998 6.78445 15.0102 7.12201 14.6726C7.45958 14.335 7.64922 13.8772 7.64922 13.3998C7.64922 13.0218 7.54662 11.8842 7.44312 10.8177C7.36617 10.0284 7.28577 9.23937 7.20192 8.45072L7.19922 8.40122V8.03222C7.19922 7.85582 7.31982 7.65062 7.56372 7.49222C8.00431 7.20636 8.36643 6.81488 8.61714 6.35338C8.86786 5.89188 8.9992 5.37502 8.99922 4.84982C8.99922 3.80762 8.79042 2.49722 8.65722 1.76102C8.60718 1.49007 8.46348 1.24533 8.25124 1.06962C8.03901 0.893907 7.77175 0.798406 7.49622 0.79982C7.19022 0.79982 6.91122 0.91412 6.70062 1.10222C6.45997 0.906624 6.15933 0.799841 5.84922 0.79982C5.52612 0.79982 5.23002 0.91322 4.99782 1.10222C4.7793 0.906827 4.49536 0.799123 4.20222 0.79982ZM5.39922 2.14982C5.39922 2.03047 5.44663 1.91601 5.53102 1.83162C5.61541 1.74723 5.72987 1.69982 5.84922 1.69982C5.96857 1.69982 6.08303 1.74723 6.16742 1.83162C6.25181 1.91601 6.29922 2.03047 6.29922 2.14982V4.84982C6.29922 4.96917 6.34663 5.08363 6.43102 5.16802C6.51541 5.25241 6.62987 5.29982 6.74922 5.29982C6.86857 5.29982 6.98303 5.25241 7.06742 5.16802C7.15181 5.08363 7.19922 4.96917 7.19922 4.84982V1.99682C7.19922 1.95782 7.2069 1.9192 7.22183 1.88316C7.23675 1.84713 7.25863 1.81439 7.28621 1.78681C7.31379 1.75923 7.34653 1.73735 7.38256 1.72243C7.4186 1.7075 7.45722 1.69982 7.49622 1.69982C7.63752 1.69982 7.74822 1.79702 7.77162 1.92212C7.90392 2.65382 8.09922 3.89492 8.09922 4.84982C8.09926 5.22515 8.00541 5.59453 7.82621 5.92433C7.64701 6.25412 7.38816 6.53384 7.07322 6.73802C6.67812 6.99452 6.29922 7.44542 6.29922 8.03222V8.40122C6.29922 8.44922 6.30162 8.49722 6.30642 8.54522C6.33162 8.77742 6.44232 9.82682 6.54762 10.905C6.65382 11.9985 6.74922 13.0785 6.74922 13.3998C6.74922 13.6385 6.6544 13.8674 6.48561 14.0362C6.31683 14.205 6.08791 14.2998 5.84922 14.2998C5.61052 14.2998 5.38161 14.205 5.21282 14.0362C5.04404 13.8674 4.94922 13.6385 4.94922 13.3998C4.94922 13.0785 5.04462 11.9985 5.15082 10.905C5.25612 9.82682 5.36682 8.77742 5.39202 8.54522C5.39682 8.49722 5.39922 8.44922 5.39922 8.40122V8.03222C5.39922 7.44542 5.02032 6.99452 4.62522 6.73802C4.31028 6.53384 4.05143 6.25412 3.87223 5.92433C3.69303 5.59453 3.59918 5.22515 3.59922 4.84982C3.59922 3.89582 3.79452 2.65382 3.92682 1.92212C3.93915 1.85838 3.97367 1.80106 4.02425 1.76036C4.07484 1.71967 4.13821 1.69821 4.20312 1.69982C4.28173 1.70006 4.35704 1.73145 4.41255 1.78713C4.46805 1.8428 4.49922 1.91821 4.49922 1.99682V4.84982C4.49922 4.96917 4.54663 5.08363 4.63102 5.16802C4.71541 5.25241 4.82987 5.29982 4.94922 5.29982C5.06857 5.29982 5.18303 5.25241 5.26742 5.16802C5.35181 5.08363 5.39922 4.96917 5.39922 4.84982V2.14982ZM9.89922 4.84982C9.89922 3.77569 10.3259 2.74556 11.0854 1.98604C11.845 1.22652 12.8751 0.79982 13.9492 0.79982C14.0686 0.79982 14.183 0.847231 14.2674 0.931622C14.3518 1.01601 14.3992 1.13047 14.3992 1.24982V7.53002L14.4172 7.73162C14.4874 8.54027 14.5558 9.34907 14.6224 10.158C14.734 11.5143 14.8492 13.0029 14.8492 13.3998C14.8492 13.8772 14.6596 14.335 14.322 14.6726C13.9844 15.0102 13.5266 15.1998 13.0492 15.1998C12.5718 15.1998 12.114 15.0102 11.7764 14.6726C11.4389 14.335 11.2492 13.8772 11.2492 13.3998C11.2492 13.0038 11.3644 11.5143 11.476 10.158C11.5318 9.47312 11.5885 8.81072 11.6308 8.32022L11.6578 7.99982H11.2492C10.8912 7.99982 10.5478 7.85759 10.2946 7.60441C10.0415 7.35124 9.89922 7.00786 9.89922 6.64982V4.84982ZM12.5974 7.58942L12.5785 7.80992L12.5272 8.39762C12.4849 8.88722 12.4282 9.54782 12.3724 10.2318C12.259 11.6151 12.1492 13.0506 12.1492 13.3998C12.1492 13.6385 12.244 13.8674 12.4128 14.0362C12.5816 14.205 12.8105 14.2998 13.0492 14.2998C13.2879 14.2998 13.5168 14.205 13.6856 14.0362C13.8544 13.8674 13.9492 13.6385 13.9492 13.3998C13.9492 13.0506 13.8394 11.6151 13.726 10.2318C13.6592 9.42436 13.5905 8.61705 13.5199 7.80992L13.501 7.59032V7.58942L13.4992 7.54982V1.73132C12.7494 1.83955 12.0637 2.2144 11.5678 2.78716C11.0719 3.35992 10.799 4.09221 10.7992 4.84982V6.64982C10.7992 6.76917 10.8466 6.88363 10.931 6.96802C11.0154 7.05241 11.1299 7.09982 11.2492 7.09982H12.1492C12.2116 7.09983 12.2734 7.11282 12.3305 7.13799C12.3877 7.16315 12.4389 7.19992 12.4811 7.24597C12.5232 7.29201 12.5554 7.34633 12.5754 7.40546C12.5954 7.46459 12.6029 7.52723 12.5974 7.58942Z" fill="#FFFDFB"/>
</g>
<defs>
<filter id="filter0_d_462_471" x="-1.30078" y="0.799805" width="20.1504" height="22.4004" filterUnits="userSpaceOnUse" color-interpolation-filters="sRGB">
<feFlood flood-opacity="0" result="BackgroundImageFix"/>
<feColorMatrix in="SourceAlpha" type="matrix" values="0 0 0 0 0 0 0 0 0 0 0 0 0 0 0 0 0 0 127 0" result="hardAlpha"/>
<feOffset dy="4"/>
<feGaussianBlur stdDeviation="2"/>
<feComposite in2="hardAlpha" operator="out"/>
<feColorMatrix type="matrix" values="0 0 0 0 0 0 0 0 0 0 0 0 0 0 0 0 0 0 0.25 0"/>
<feBlend mode="normal" in2="BackgroundImageFix" result="effect1_dropShadow_462_471"/>
<feBlend mode="normal" in="SourceGraphic" in2="effect1_dropShadow_462_471" result="shape"/>
</filter>
</defs>
</svg>
