<svg width="26" height="23" viewBox="0 0 26 23" fill="none" xmlns="http://www.w3.org/2000/svg">
<path d="M22.3756 12.7146L13.0006 21.9996L3.62562 12.7146C3.00725 12.1129 2.52017 11.3896 2.19506 10.5904C1.86994 9.79118 1.71382 8.9333 1.73654 8.07078C1.75926 7.20826 1.96032 6.35978 2.32707 5.57878C2.69381 4.79778 3.21829 4.10118 3.86748 3.53284C4.51667 2.96449 5.2765 2.53672 6.09913 2.27646C6.92177 2.0162 7.78938 1.92909 8.64733 2.02061C9.50528 2.11213 10.335 2.38031 11.0842 2.80824C11.8334 3.23618 12.4859 3.81461 13.0006 4.50711C13.5175 3.81964 14.1708 3.24626 14.9195 2.82287C15.6682 2.39947 16.4962 2.13517 17.3518 2.04651C18.2073 1.95785 19.072 2.04673 19.8916 2.3076C20.7112 2.56847 21.4682 2.9957 22.1151 3.56256C22.762 4.12943 23.2849 4.82372 23.6511 5.60198C24.0174 6.38024 24.219 7.22571 24.2435 8.0855C24.268 8.94528 24.1147 9.80085 23.7933 10.5987C23.4719 11.3965 22.9893 12.1194 22.3756 12.7221" stroke="#757575" stroke-width="2" stroke-linecap="round" stroke-linejoin="round"/>
</svg>
