<svg width="31" height="30" viewBox="0 0 31 30" fill="none" xmlns="http://www.w3.org/2000/svg">
<path fill-rule="evenodd" clip-rule="evenodd" d="M2.00069 17.6517C0.536227 16.1873 0.536227 13.8129 2.00069 12.3484L12.949 1.40011C14.4135 -0.064359 16.7878 -0.0643586 18.2523 1.40011L29.2006 12.3484C30.6651 13.8129 30.6651 16.1872 29.2006 17.6517L18.2523 28.6C16.7878 30.0645 14.4135 30.0645 12.949 28.6L2.00069 17.6517ZM3.76846 14.1162L14.7168 3.16787C15.2049 2.67972 15.9964 2.67972 16.4845 3.16787L27.4328 14.1162C27.921 14.6043 27.921 15.3958 27.4328 15.8839L16.4845 26.8323C15.9964 27.3204 15.2049 27.3204 14.7168 26.8323L9.33325 21.4487C9.34365 21.3839 9.34904 21.3173 9.34904 21.2495C9.34904 18.4881 11.5876 16.2495 14.349 16.2495H18.8313L15.9652 19.1157C15.477 19.6038 15.477 20.3953 15.9652 20.8834C16.4533 21.3716 17.2448 21.3716 17.7329 20.8834L22.7329 15.8834C23.2211 15.3953 23.2211 14.6038 22.7329 14.1156L17.7329 9.11565C17.2448 8.62749 16.4533 8.62749 15.9652 9.11565C15.477 9.6038 15.477 10.3953 15.9652 10.8834L18.8313 13.7495H14.349C10.9039 13.7495 8.00127 16.0724 7.12199 19.2375L3.76846 15.8839C3.2803 15.3958 3.2803 14.6043 3.76846 14.1162Z" fill="#757575"/>
</svg>
