<svg width="18" height="18" viewBox="0 0 18 18" fill="none" xmlns="http://www.w3.org/2000/svg">
<g clip-path="url(#clip0_462_484)">
<g filter="url(#filter0_d_462_484)">
<path d="M8.14132 4.49957L8.70382 3.93707M8.70382 6.74957L9.26632 6.18707M10.9538 7.31207L11.5163 6.74957M14.8576 10.1868C14.8663 10.1081 14.8584 10.0285 14.8343 9.95311C14.8101 9.87772 14.7704 9.80827 14.7176 9.7493C14.6647 9.69033 14.6001 9.64317 14.5278 9.61091C14.4555 9.57865 14.3772 9.562 14.2981 9.56207H1.98457C1.90552 9.56235 1.82741 9.57923 1.75529 9.61162C1.68318 9.644 1.61866 9.69116 1.56592 9.75005C1.51318 9.80894 1.47339 9.87824 1.44913 9.95348C1.42487 10.0287 1.41667 10.1082 1.42507 10.1868C1.57818 11.3279 2.04215 12.4049 2.76624 13.3001C3.49033 14.1952 4.44664 14.8739 5.53057 15.2621C5.63672 15.3029 5.72802 15.3749 5.79242 15.4686C5.85682 15.5623 5.89131 15.6733 5.89132 15.7871V16.8746C5.89132 17.0237 5.95058 17.1668 6.05607 17.2723C6.16156 17.3778 6.30464 17.4371 6.45382 17.4371H9.82882C9.97801 17.4371 10.1211 17.3778 10.2266 17.2723C10.3321 17.1668 10.3913 17.0237 10.3913 16.8746V15.7871C10.3913 15.6733 10.4258 15.5623 10.4902 15.4686C10.5546 15.3749 10.6459 15.3029 10.7521 15.2621C11.836 14.8739 12.7923 14.1952 13.5164 13.3001C14.2405 12.4049 14.7045 11.3279 14.8576 10.1868ZM16.5166 2.86907C16.5503 2.9348 16.5708 3.00655 16.5768 3.0802C16.5828 3.15386 16.5743 3.22797 16.5517 3.29832C16.529 3.36867 16.4927 3.43386 16.4449 3.49019C16.3971 3.54651 16.3386 3.59285 16.2728 3.62657L13.7716 4.91131C13.5738 5.02151 13.3559 5.09079 13.1308 5.11503C12.9058 5.13928 12.6781 5.11798 12.4614 5.05242C12.2448 4.98686 12.0435 4.87838 11.8696 4.73342C11.6957 4.58847 11.5528 4.41001 11.4493 4.20867C11.3458 4.00733 11.2839 3.78723 11.2672 3.56147C11.2506 3.3357 11.2795 3.10889 11.3523 2.89454C11.4251 2.68019 11.5403 2.48267 11.691 2.31376C11.8417 2.14484 12.0249 2.00798 12.2296 1.91132L14.7316 0.624315C14.8643 0.556375 15.0185 0.543886 15.1604 0.58959C15.3023 0.635293 15.4202 0.735453 15.4883 0.868065L16.5166 2.86907Z" stroke="#FFFDFB" stroke-width="1.5" stroke-linecap="round" stroke-linejoin="round" shape-rendering="crispEdges"/>
</g>
</g>
<defs>
<filter id="filter0_d_462_484" x="-3.32812" y="-0.1875" width="24.6562" height="26.375" filterUnits="userSpaceOnUse" color-interpolation-filters="sRGB">
<feFlood flood-opacity="0" result="BackgroundImageFix"/>
<feColorMatrix in="SourceAlpha" type="matrix" values="0 0 0 0 0 0 0 0 0 0 0 0 0 0 0 0 0 0 127 0" result="hardAlpha"/>
<feOffset dy="4"/>
<feGaussianBlur stdDeviation="2"/>
<feComposite in2="hardAlpha" operator="out"/>
<feColorMatrix type="matrix" values="0 0 0 0 0 0 0 0 0 0 0 0 0 0 0 0 0 0 0.25 0"/>
<feBlend mode="normal" in2="BackgroundImageFix" result="effect1_dropShadow_462_484"/>
<feBlend mode="normal" in="SourceGraphic" in2="effect1_dropShadow_462_484" result="shape"/>
</filter>
<clipPath id="clip0_462_484">
<rect width="18" height="18" fill="white"/>
</clipPath>
</defs>
</svg>
