<svg width="18" height="18" viewBox="0 0 18 18" fill="none" xmlns="http://www.w3.org/2000/svg">
<g filter="url(#filter0_d_462_604)">
<path d="M9 4.896V2.25C9 2.05109 9.07902 1.86032 9.21967 1.71967C9.36032 1.57902 9.55109 1.5 9.75 1.5" stroke="#FFFDFB" stroke-width="2" stroke-linecap="round" stroke-linejoin="round"/>
<path d="M13.6778 15.7499C15.5072 13.6811 16.5117 11.0116 16.5 8.2499C16.5 7.38122 16.2485 6.53111 15.776 5.80219C15.3035 5.07327 14.6301 4.49669 13.8371 4.14206C13.0441 3.78743 12.1654 3.66991 11.3071 3.80367C10.4488 3.93744 9.64749 4.31678 9.00002 4.8959C8.35254 4.31678 7.55128 3.93744 6.69296 3.80367C5.83464 3.66991 4.95594 3.78743 4.16295 4.14206C3.36995 4.49669 2.69654 5.07327 2.22401 5.80219C1.75149 6.53111 1.50004 7.38122 1.50002 8.2499C1.49528 11.0103 2.49891 13.6774 4.32227 15.7499C4.65805 16.1255 5.11019 16.3776 5.60627 16.4657C6.10235 16.5539 6.61366 16.4729 7.05827 16.2359C7.65584 15.9171 8.32272 15.7503 9.00002 15.7503C9.67732 15.7503 10.3442 15.9171 10.9418 16.2359C11.3864 16.4729 11.8977 16.5539 12.3938 16.4657C12.8898 16.3776 13.342 16.1255 13.6778 15.7499Z" stroke="#FFFDFB" stroke-width="2" stroke-linecap="round" stroke-linejoin="round"/>
</g>
<defs>
<filter id="filter0_d_462_604" x="-3.5" y="0.5" width="25" height="25" filterUnits="userSpaceOnUse" color-interpolation-filters="sRGB">
<feFlood flood-opacity="0" result="BackgroundImageFix"/>
<feColorMatrix in="SourceAlpha" type="matrix" values="0 0 0 0 0 0 0 0 0 0 0 0 0 0 0 0 0 0 127 0" result="hardAlpha"/>
<feOffset dy="4"/>
<feGaussianBlur stdDeviation="2"/>
<feComposite in2="hardAlpha" operator="out"/>
<feColorMatrix type="matrix" values="0 0 0 0 0 0 0 0 0 0 0 0 0 0 0 0 0 0 0.25 0"/>
<feBlend mode="normal" in2="BackgroundImageFix" result="effect1_dropShadow_462_604"/>
<feBlend mode="normal" in="SourceGraphic" in2="effect1_dropShadow_462_604" result="shape"/>
</filter>
</defs>
</svg>
